<svg width="1000" height="500" viewBox="0 0 1000 500" fill="none" xmlns="http://www.w3.org/2000/svg">
<path d="M761.262 249.897C761.262 303.799 717.588 347.485 663.661 347.485C609.771 347.485 566.098 303.799 566.098 249.897C566.098 196.02 609.771 152.321 663.661 152.321C717.588 152.321 761.262 196.02 761.262 249.897Z" fill="white"/>
<path d="M833.414 150C796.754 150 764.701 169.773 747.307 199.206C756.295 213.979 761.498 231.36 761.498 249.905C761.498 268.539 756.295 285.895 747.244 300.693C764.612 330.189 796.728 350 833.414 350C888.658 350 933.421 305.225 933.421 250.006C933.421 194.788 888.658 150 833.414 150Z" fill="black"/>
<path d="M793.231 281.967V218.166H805.776L834.057 266.891L862.4 218.166H874.692V281.967H863.932V233.015L836.513 281.043H831.297L803.903 233.205V281.967H793.231Z" fill="white"/>
<path d="M652.712 329.851C652.877 334.205 656.788 335.168 664.054 335.522V333.572C668.308 333.661 671.802 332.775 671.701 329.939C671.675 327.534 668.624 326.078 664.054 326.369V324.787C656.573 324.812 652.636 326.876 652.712 329.851ZM661.611 332.167C659.003 332.357 655.978 332.015 656.003 329.787C656.067 327.42 659.32 327.243 661.611 327.445V332.167Z" fill="black"/>
<path d="M615.726 178.287C627.601 175.426 631.968 170.983 649.298 178.351C650.438 178.958 651.678 179.895 651.425 177.692C649.108 170.831 646.627 169.945 646.627 169.844C634.601 167.768 625.942 171.173 615.866 176.642C615.144 176.908 614.245 178.072 615.726 178.287Z" fill="black"/>
<path d="M668.517 308.632L666.266 308.468L666.165 310.731C667.177 310.643 667.847 310.605 668.403 310.428C668.517 309.669 668.479 309.29 668.517 308.632Z" fill="black"/>
<path d="M678.586 191.522C687.422 187.066 703.119 195.826 710.6 195.674C710.714 195.307 710.79 195.142 710.828 194.788C700.144 192.623 692.523 186.673 680.485 188.559C677.484 189.028 670.155 192.471 668.661 201.18C674.421 193.281 675.56 193.003 678.586 191.522Z" fill="black"/>
<path d="M661.543 307.463V310.371L664.11 310.561C664.224 307.817 664.173 307.185 661.543 307.463Z" fill="black"/>
<path d="M680.001 193.999C674.14 195.847 668.507 202.468 671.9 208.088C675.546 214.114 684.711 210.987 687.572 207.367C696.268 196.442 704.117 199.531 704.446 198.252C698.737 193.847 687.774 191.581 680.001 193.999Z" fill="black"/>
<path d="M675.329 310.927C675.798 310.927 676.406 311.181 676.685 310.737C676.634 310.458 677.116 310.192 676.812 310.027C676.203 309.723 675.494 308.315 674.999 309.495C674.784 309.938 674.467 310.927 675.329 310.927Z" fill="black"/>
<path d="M661.543 315.563C664.568 316.727 673.189 315.841 674.835 313.79C675.139 313.322 675.468 312.563 674.518 312.436C667.683 314.208 665.543 312.803 661.556 312.221V315.563H661.543Z" fill="black"/>
<path d="M672.929 310.672C673.233 309.95 672.954 309.544 672.954 308.872C672.333 308.973 671.889 308.847 671.319 308.771C671.002 309.303 671.002 309.759 670.875 310.507C671.724 310.812 671.953 310.812 672.929 310.672Z" fill="black"/>
<path d="M763.591 249.892C763.591 194.813 718.766 150 663.686 150C608.594 150 563.819 194.813 563.819 249.892C563.819 304.984 608.594 349.81 663.686 349.81C718.766 349.81 763.591 304.984 763.591 249.892ZM754.933 254.437C754.869 255.728 754.793 257.007 754.667 258.298C752.084 258.298 750.072 255.121 747.894 255.121L747.325 257.399C749.641 258.665 751.806 261.235 754.198 262.425C754.047 263.653 753.882 264.843 753.654 266.02C751.705 265.311 748.527 262.235 747.325 262.235C746.299 263.4 745.995 264.121 746.894 265.096C746.894 265.197 750.603 268.121 752.971 269.299C752.705 270.64 752.363 271.97 752.046 273.274C749.249 275.514 744.021 266.729 743.907 271.982C745.628 274.033 748.882 275.451 750.654 277.932C750.224 279.261 749.755 280.578 749.287 281.894C739.172 273.198 729.387 266.463 716.88 261.285C718.386 255.829 735.868 265.729 735.868 266.83C736.337 265.716 736.944 265.59 737.185 264.779C735.374 263.437 725.627 257.083 722.791 256.728C722.69 256.437 724.829 254.386 725.057 253.741C725.83 253.639 731.121 255.64 731.792 256.032C733.995 253.298 728.615 253.057 727.032 250.93C727.779 250.146 728.058 249.145 728.513 247.791C729.83 248.234 731.475 250.247 732.678 249.424C733.248 248.702 733.298 248.158 733.045 247.512C728.728 244.639 729.336 246.576 730.412 241.31C736.387 241.917 734.184 240.145 731.096 238.512L731.678 234.929C733.045 235.36 735.488 235.828 734.754 233.55C733.805 233.094 733.438 233.347 732.21 232.271C732.615 231.119 732.741 230.208 732.868 228.688C733.881 228.321 734.438 228.524 735.235 228.258C735.501 226.638 734.033 226.587 733.058 225.802C733.26 224.663 733.184 223.941 733.184 222.713L735.387 222.992C735.906 223.03 736.4 221.042 735.653 220.853C734.21 220.447 731.526 219.055 730.564 217.485C739.147 218.688 740.058 214.637 744.35 211.966C744.717 211.713 746.059 212.004 747.033 212.46C747.502 213.498 747.932 214.523 748.35 215.561C747.147 215.586 745.692 214.675 744.945 214.814C744.654 216.675 745.565 216.675 745.565 217.004C746.236 217.27 748.35 217.903 749.565 218.675C749.932 219.739 750.312 220.802 750.654 221.815C748.464 220.815 747.135 219.473 745.983 221.789C749.249 222.916 750.654 224.258 751.667 225.157C751.945 226.22 752.236 227.296 752.477 228.372C750.477 227.967 748.426 225.726 746.59 226.625L746.654 226.764L746.527 227.676C747.793 227.98 751.692 230.575 753.426 232.765C753.591 233.537 753.692 234.271 753.806 235.043C751.73 234.815 749.236 231.828 747.73 232.967C747.73 234.107 748.363 234.752 748.704 235.145C750.654 237.221 753.084 237.335 754.363 238.79C754.528 240.044 754.642 241.272 754.717 242.474C752.502 241.841 751.831 241.297 748.261 239.892C746.261 240.955 749.705 243.17 751.173 243.5C752.49 243.943 754.135 244.917 754.945 245.879C755.009 247.196 755.021 248.588 755.021 249.905C755.021 249.956 755.021 249.968 755.021 249.994C752.401 248.956 749.413 246.285 746.919 248.082C746.957 251.399 753.262 250.146 754.933 254.437ZM745.603 290.376C743.375 285.793 734.248 279.033 730.564 276.856C730.564 274.932 729.64 272.349 728.982 270.628C734.007 271.729 740.223 277.641 744.122 281.54C745.008 282.413 747.274 285.249 747.274 285.249C747.502 285.452 747.616 285.603 747.704 285.793C747.084 287.325 746.363 288.857 745.603 290.376ZM741.704 297.465C739.78 293.439 735.843 288.211 731.703 285.439V281.375C735.248 282.185 741.615 288.401 744.476 292.617C743.578 294.25 742.653 295.883 741.704 297.465ZM737.349 303.908C734.944 298.971 733.678 297.655 729.931 294.174C730.779 292.553 730.779 291.642 731.121 289.49C735.805 292.439 738.83 297.402 740.134 299.908C739.261 301.275 738.324 302.579 737.349 303.908ZM734.944 307.06L732.362 309.845C732.172 309.871 729.488 302.807 726.336 299.769C727.501 298.604 727.906 298.149 728.513 296.579C731.817 299.389 734.083 302.503 735.463 306.402C735.311 306.617 735.134 306.807 734.944 307.06ZM726.197 316.517C725.5 310.934 724.779 308.807 721.69 304.883C722.513 303.984 723.462 303.478 724.31 301.642C727.526 305.529 728.842 308.478 729.754 312.998C728.602 314.2 727.412 315.365 726.197 316.517ZM720.209 321.644C720.019 317.416 719.297 314.745 716.272 310.39C716.842 310.048 719.437 307.719 719.538 307.719C722.437 311.301 722.994 314.276 723.754 318.694C722.589 319.719 721.437 320.694 720.209 321.644ZM713.715 326.353C713.55 322.682 712.449 317.985 710.196 313.63C711.905 313.289 712.702 312.884 713.981 311.808C715.588 314.441 717.323 319.707 717.437 323.758C716.221 324.644 714.956 325.505 713.715 326.353ZM706.664 330.518C706.436 321.973 704.626 320.631 702.17 315.466C701.904 314.896 705.411 315.099 707.714 314.453C709.829 318.935 711.512 321.884 711.36 327.847C709.829 328.796 708.259 329.695 706.664 330.518ZM699.081 334.151C698.942 327.442 696.132 320.074 691.574 314.213L697.689 315.188C700.549 318.568 702.284 321.682 703.765 331.999C702.233 332.758 700.676 333.505 699.081 334.151ZM682.637 262.956C689.739 257.475 696.245 269.058 688.84 274.324C682.004 280.616 674.231 280.552 665.421 280.552C665.155 289.781 680.346 298.87 688.523 296.262C701.575 295.034 709.512 279.021 718.563 284.603C721.601 286.464 720.196 289.021 722.437 291.275C724.171 291.11 724.171 290.009 724.576 288.756C718.753 284.983 727.741 277.869 714.93 276.717C709.55 276.21 707.601 267.514 695.017 270.856C700.866 262.615 715.323 263.513 720.551 266.982C734.336 276.084 725.07 301.478 721.424 298.769C721.057 282.413 690.853 303.377 685.852 301.731C674.662 300.389 668.307 291.616 663.623 290.882H661.281V296.832C655.357 296.326 658.256 294.718 651.838 294.718C645.318 294.718 645.533 297.136 639.596 299.82C643.862 290.908 645.078 288.502 650.673 287.945C652.686 287.945 663.294 291.249 663.724 288.211V275.299C672.889 275.717 675.852 273.198 680.346 268.78C681.295 270.235 685.194 273.008 686.738 270.881C685.549 268.729 679.903 270.375 682.637 262.956ZM663.75 228.79C664.269 228.511 666.75 234.423 666.902 235.183C670.079 251.652 667.598 255.88 663.75 256.007V228.79ZM663.75 168.318C665.497 168.318 668.915 170.558 669.282 168.039C666.661 166.571 665.813 167.14 663.75 166.064V163.165C666.978 163.457 669.75 164.305 672.915 165.09C676.485 161.469 665.294 161.38 663.75 160.368V158.545C671.877 158.545 679.751 159.634 687.22 161.621L687.131 161.899C680.637 162.33 674.687 166.786 669.624 172.103C669.206 172.571 668.547 174.381 666.813 174.305C665.066 174.242 664.269 173.647 663.75 172.103V168.318ZM703.778 167.824C706.043 169.672 707.525 172.077 704.271 173.748C693.498 173.305 689.574 173.394 684.346 175.191C675.573 178.23 665.927 187.344 665.927 187.344C663.636 189.635 663.598 187.18 664.585 185.091C668.737 172.014 682.295 161.899 696.068 164.444C698.714 165.444 701.284 166.583 703.778 167.824ZM744.654 207.586C742.388 212.46 738.843 214.979 733.197 214.979C730.526 214.713 728.703 213.89 726.868 212.434C726.868 212.118 726.88 211.865 726.969 211.561C732.64 211.725 739.944 208.383 741.894 202.687C742.881 204.282 743.805 205.915 744.654 207.586ZM740.324 200.18C736.982 206.991 729.64 209.092 726.057 209.092C723.893 208.814 717.487 207.586 717.183 204.965C720.842 200.32 731.615 204.687 734.476 192.192C736.577 194.737 738.527 197.421 740.324 200.18ZM711.677 216.207C713.436 215.207 714.652 215.042 716.449 215.131C719.956 226.081 715.728 230.461 711.803 232.068C705.499 234.588 699.904 230.689 696.625 226.157C697.537 225.511 699.841 223.346 700.879 223.258C702.17 227.942 705.942 229.03 709.651 227.828C713.917 226.435 715.918 220.802 711.677 216.207ZM694.524 224.6C688.055 227.423 682.903 225.169 679.194 223.194C694.866 221.093 694.334 216.017 704.195 209.333C707.714 207.89 715.487 209.434 717.778 212.181C699.461 213.852 705.119 219.928 694.524 224.6ZM693.321 227.41C695.701 231.904 705.107 238.246 713.006 234.512C721.703 230.448 721.412 222.612 720.931 214.89L724.893 215.789C726.336 221.08 727.513 232.739 714.512 238.487C704.271 242.917 693.764 235.917 689.207 228.676L693.321 227.41ZM730.463 187.585C729.058 188.585 724.665 188.319 723.526 188.319C722.247 186.964 725.424 184.635 726.716 183.825C728.007 185.028 729.248 186.293 730.463 187.585ZM724.893 182.116C724.703 183.686 722.412 186.104 720.196 187.812C719.93 187.977 719.386 188.18 719.108 188.154C716.677 188.053 719.437 180.825 720.893 178.698C722.26 179.787 723.602 180.939 724.893 182.116ZM718.918 177.141C717.057 179.609 716.5 181.04 716.766 184.002C716.842 184.749 715.664 184.47 714.436 183.268C712.791 179.584 713.968 177.242 716.133 175.115C717.082 175.786 717.994 176.457 718.918 177.141ZM714.259 173.837C713.158 174.533 712.576 175.533 712.765 176.736C712.765 179.863 711.398 178.217 710.816 177.9C709.791 176.533 709.12 174.09 710.955 171.748C712.082 172.406 713.158 173.103 714.259 173.837ZM711.677 186.104C688.194 178.964 683.017 179.774 667.497 189.028C671.193 184.433 681.865 179.04 685.511 178.255C694.916 175.888 700.334 175.179 708.398 181.85C710.626 183.724 711.677 185.167 711.677 186.104ZM696.866 187.218C710.284 191.876 717.905 193.699 731.425 190.522C727.045 202.763 717.576 201.446 713.955 202.902C701.651 203.776 699.511 212.599 688.245 218.954C678.599 222.549 665.243 218.966 663.965 207.94C661.648 188.04 681.738 182.622 696.866 187.218ZM675.877 223.422C688.194 233.879 694.676 241.93 706.879 242.474C720.006 243.044 726.209 236.17 729.804 224.182H730.222C729.944 233.081 724.26 243.234 711.778 244.538C690.574 246.652 675.599 224.081 675.599 224.081L675.877 223.422ZM698.448 246.373C708.335 250.082 723.184 243.348 729.083 236.36C725.323 243.474 715.766 249.892 703.841 249.715C699.448 249.677 687.65 245.69 679.687 235.258C680.232 235.183 694.334 246.5 698.448 246.373ZM704.993 282.261C701.638 283.059 695.461 278.844 694.524 276.033C695.777 275.691 696.562 275.691 698.144 276.375C701.157 277.755 698.942 279.325 704.993 282.261ZM700.119 273.02C705.714 273.425 703.74 275.565 709.36 278.287C706.449 278.502 700.36 276.4 700.119 273.02ZM676.307 283.034C677.852 283.034 680.27 283.287 681.143 284.426C682.675 286.3 684.384 289.325 691.587 292.351C684.827 292.933 675.181 285.426 676.307 283.034ZM668.547 283.629C669.813 283.768 671.978 283.477 673.371 284.869C674.902 286.338 675.409 288.211 682.675 293.174C683.169 293.566 672.852 290.819 668.547 283.629ZM681.89 281.274C683.105 281.274 686.371 281.211 687.321 282.413C688.384 283.793 691.903 287.578 696.79 289.186C692.853 290.54 683.169 283.869 681.89 281.274ZM688.346 278.476C689.84 278.388 691.144 277.843 692.777 278.844C694.131 279.704 692.916 281.363 700.79 286.249C697.701 286.667 689.068 281.654 688.346 278.476ZM684.713 250.918C685.751 250.918 694.473 257.88 703.474 258.235C710.537 258.538 719.057 256.956 722.158 252.652H722.437C720.184 257.817 709.879 260.88 702.967 260.665C699.461 260.526 688.27 256.45 684.713 250.918ZM704.183 255.07C697.056 254.488 688.118 250.589 683.46 243.639L683.612 243.575C690.979 249.5 698.22 252.487 704.93 252.513C713.373 252.551 717.487 250.032 726.526 244.74C722.563 250.69 712.487 254.488 704.183 255.07ZM705.537 298.465C708.208 296.047 709.487 295.946 712.335 296.085C714.512 302.946 712.082 310.757 708.158 312.149C710.006 303.25 706.309 302.465 705.537 298.465ZM699.549 310.187C697.689 307.478 697.22 305.997 694.663 303.44C696.777 303.073 698.663 302.212 700.689 301.908C701.461 303.478 701.6 306.909 699.549 310.187ZM669.927 300.427C668.585 308.744 665.37 300.731 665.8 298.161C667.142 299.123 668.509 299.642 669.927 300.427ZM641.938 307.605C643.698 303.035 648.989 302.111 663.534 306.276C669.484 306.617 679.903 303.769 684.852 308.352C686.675 310.035 685.131 313.149 683.093 317.897L654.091 317.871C646.381 317.859 638.482 314.795 641.938 307.605ZM663.75 320.985C674.269 321.479 681.207 323.568 681.396 329.733C681.65 336.328 673.56 339.012 663.788 339.43L663.75 337.012C652.331 336.67 647.166 335.037 647.166 329.669C647.166 323.859 653.838 323.15 663.8 323.479L663.75 320.985ZM661.306 319.694V321.859C653.622 321.834 643.014 322.112 642.799 329.454C642.546 337.822 655.116 338.227 661.306 338.227V340.607C650.002 340.822 638.546 337.202 638.254 329.821C638.913 321.859 648.128 319.454 661.306 319.694ZM672.155 340.885C681.004 339.037 684.941 337.189 687.523 330.404C688.561 334.075 688.625 335.885 688.346 337.898C683.093 339.366 677.675 340.379 672.155 340.885ZM691.055 337.1C692.308 329.973 689.637 324.353 685.928 318.593C686.865 317.441 687.549 316.352 688.131 314.998C694.233 320.542 695.967 328.973 696.119 335.328C694.448 335.961 692.777 336.569 691.055 337.1ZM613.734 173.445C622 169.204 636.621 163.406 651.129 166.558C657.116 169.697 661.332 179.014 661.332 183.762V193.307C653.964 184.395 636.33 177.787 625.279 180.015C622.051 180.66 623.621 181.977 624.19 182.205C633.533 182.129 659.724 191.876 661.332 205.459L661.306 266.26C668.636 266.577 671.51 264.412 673.092 262.855C675.561 260.437 678.181 254.538 677.434 248.93L674.662 249.88H674.523C673.421 258.45 670.965 261.336 663.813 263.412V259.88C668.775 259.412 671.067 255.045 670.623 245.462C670.155 236.335 667.446 229.094 663.75 221.523V214.536C667.383 221.777 670.649 235.702 673.067 238.208C674.902 237.512 670.206 225.03 668.547 220.308C670.37 218.118 673.522 225.207 675.409 228.891C678.839 237.398 687.333 266.172 673.598 270.716C661.268 273.932 651.977 272.476 648.331 266.995C642.47 257.348 654.496 245.588 650.698 240.841L647.445 211.206C645.065 190.42 616.354 183.255 605.012 196.611C603.151 199.535 605.67 198.623 607.138 197.446C616.291 191.534 636.457 190.319 642.191 207.712C643.546 211.206 643.432 218.333 639.482 209.067C632.533 198.18 622.241 193.167 610.177 201.775C608.113 203.092 600.771 209.599 598.227 206.079C593.733 200.294 603.923 192.104 603.607 188.483L602.024 189.42C594.834 195.433 589.922 210.143 594.505 221.701C595.201 224.688 598.594 227.385 592.112 228.84C578.529 233.815 576.377 247.436 576.276 253.082C576.276 275.312 595.036 300.718 618.899 288.654C623.848 285.502 626.545 282.059 628.19 279.717L626.849 278.641C589.783 317.416 566.402 241.803 597.34 237.056C600.961 241.246 606.088 246.183 611.582 247.436C622.38 249.867 632.419 245.424 644.014 229.157C645.837 227.321 646.242 229.094 645.926 230.005C644.761 236.195 638.09 244.867 636.988 247.285C636.318 248.728 636.875 250.5 638.925 248.829C641.47 245.31 642.267 242.879 644.521 242.461L639.406 253.348C637.52 256.247 635.976 257.981 641.001 257.336C645.736 257.336 643.559 259.652 644.293 263.26C648.698 269.653 638.216 274.375 637.33 265.273C637.356 262.07 640.001 259.741 638.178 259.285C636.292 259.868 633.824 264.526 633.697 269.678L628.912 276.742L630.064 277.907L635.457 270.4C637.875 275.793 646.597 272.742 647.052 272.59C648.964 272.679 650.002 273.172 651.04 274.552C651.129 276.514 651.61 277.362 652.863 279.844C654.635 283.464 651.597 283.932 649.154 284.882C639.394 288.528 638.799 294.414 634.862 299.111C632.254 302.263 631.203 301.187 628.798 303.643C627.051 306.719 631.216 308.023 631.963 309.63C633.14 312.035 635.583 315.327 638.989 316.757C641.229 317.504 642.558 318.074 639.128 320.011C636.672 321.707 635.596 325.96 635.596 327.34C635.596 330.758 636.305 335.088 640.217 338.151C638.077 337.607 635.976 336.948 633.925 336.24C636.204 333.277 634.064 332.353 633.596 331.581C632.646 331.834 632.457 334.733 629.241 334.48C628.646 334.252 628.077 334.012 627.507 333.746C629.646 330.353 639.254 319.011 634.33 317.314C630.494 323.796 628.823 331.176 621.38 330.809C621.025 330.619 620.646 330.416 620.266 330.239C624.203 327.378 629.849 324.087 632.558 315.327L631.14 314.858C628.064 321.15 622.076 328.682 614.886 327.062C614.303 326.695 613.759 326.315 613.19 325.96C616.443 324.353 618.696 322.922 620.494 321.479C622.203 320.099 629.912 313.466 627.127 312.035C623.064 316.061 614.785 324.796 608.708 322.745C607.949 322.188 607.215 321.618 606.48 321.011C609.936 320.036 613.645 318.568 616.43 316.732C619.228 314.858 623.291 310.884 625.532 309.567L624.583 307.719C622.317 308.187 612 316.58 609.822 317.112C607.442 317.694 605.379 319.099 602.67 317.783C601.708 316.935 600.771 316.023 599.834 315.137C605.544 314.504 610.734 312.896 613.278 311.289C615.392 309.972 622.988 306.276 623.899 306.238L622.836 304.389C617.544 306.238 613.228 312.517 601.632 312.517C600.974 312.517 598.125 312.352 595.15 310.213C594.366 309.326 593.619 308.402 592.872 307.504C599.872 308.542 605.657 308.352 612.43 306.364C615.709 305.162 618.798 303.086 622.165 302.263L621.063 299.794C614.797 302.554 610.202 305.491 602.48 305.491C594.201 305.491 592.581 306.655 587.884 300.794C587.631 300.452 587.441 300.136 587.239 299.794C588.378 298.921 594.543 301.921 598.834 301.921C608.379 301.921 612.683 301.63 620.658 297.946L619.684 296.098C617 297.275 610.734 299.123 604.974 299.376C591.948 299.478 581.934 293.693 581.251 288.173C584.998 291.262 590.492 295.136 596.809 295.819C601.708 296.313 614.721 295.781 619.367 294.022L618.608 292.211C616.152 293.186 605.67 294.047 602.505 294.047C595.885 294.047 588.492 289.363 586.656 287.92C573.504 277.337 571.491 246.639 577.187 235.309C579.58 230.499 588.099 222.384 587.947 220.802C586.846 210.156 586.099 204.333 589.872 196.155C596.366 187.243 604.442 179.508 613.734 173.445ZM612.595 238.499C619.582 241.993 623.621 240.233 628.494 238.6C629.811 237.524 631.456 237.271 632.254 237.322C634.267 239.575 623.405 243.563 619.215 242.816C608.531 242.018 599.391 233.106 601.746 223.789C603.569 221.422 607.126 231.917 612.911 233.246C622.734 237.55 632.609 228.916 634.444 225.245C635.723 222.751 638.444 222.283 639.837 223.562C638.609 230.182 631.976 233.866 629.013 235.727C623.102 239.157 616.43 238.803 612.949 236.803C611.696 236.702 611.151 237.664 612.595 238.499ZM620.025 210.535C635.292 210.877 638.356 231.473 619.177 230.625C612.949 230.359 610.012 226.473 610.582 222.979C611.126 219.574 612.569 219.207 615.038 218.954C610.113 228.157 629.95 230.638 628.279 218.852C628.912 218.599 629.229 218.764 629.355 218.384C629.355 218.321 628.228 217.574 627.95 217.283C622.064 211.092 606.48 218.131 605.366 218.359C605.366 218.359 605.126 218.384 605.037 218.384C600.303 218.118 598.923 214.827 597.796 210.903C607.442 215.523 611.582 203.864 619.772 202.332C630.57 200.358 635.318 209.447 638.141 217.397C638.52 221.017 636.077 220.447 635.153 217.738C633.115 209.51 628.798 206.725 620.025 207.548V210.535ZM584.378 216.738C586.34 222.41 577.833 227.423 575.39 231.473C574.719 232.575 574.124 233.701 573.579 234.79C575.25 224.865 578.491 215.447 583.099 206.864C582.871 210.105 583.238 213.434 584.378 216.738Z" fill="black"/>
<path d="M66 281.303L98.7109 217.515H111.37L144.081 281.303H133.067L125.586 266.796H84.5835L77.1146 281.303H66ZM122.32 260.138L105.002 227.161L87.7862 260.138H122.32Z" fill="black"/>
<path d="M144.148 217.515H212.722V225.705H183.86V281.303H173.011V225.705H144.148V217.515Z" fill="black"/>
<path d="M221.062 282.392L220.062 274.67C221.884 274.303 223.619 273.569 225.29 272.468C226.961 271.391 228.632 269.784 230.265 267.708C231.91 265.606 233.214 262.707 234.202 259.011C235.176 255.277 235.645 251.023 235.645 246.213V217.515H292.256V281.303H281.686V225.351H246.228V247.023C246.228 253.276 245.468 258.732 244.025 263.353C242.582 267.974 240.569 271.569 238.012 274.126C235.455 276.734 232.784 278.632 230.037 279.949C227.239 281.215 224.277 282.025 221.062 282.392Z" fill="black"/>
<path d="M306.631 281.303L339.367 217.515H352.026L384.75 281.303H373.724L366.255 266.796H325.24L317.758 281.303H306.631ZM362.976 260.138L345.646 227.161L328.43 260.138H362.976Z" fill="black"/>
<path d="M409.666 217.515V245.567H456.39V217.515H467.15V281.303H456.39V253.694H409.666V281.303H398.994V217.515H409.666Z" fill="black"/>
<path d="M481.31 217.558H549.871V225.748H521.034V281.346H510.172V225.748H481.31V217.558Z" fill="black"/>
</svg>
